<svg width="32" height="32" viewBox="0 0 32 32" fill="none" xmlns="http://www.w3.org/2000/svg">
<path d="M12 27C12 27.3956 11.8827 27.7822 11.6629 28.1111C11.4432 28.44 11.1308 28.6964 10.7654 28.8478C10.3999 28.9991 9.99778 29.0387 9.60982 28.9616C9.22186 28.8844 8.86549 28.6939 8.58579 28.4142C8.30608 28.1345 8.1156 27.7781 8.03843 27.3902C7.96126 27.0022 8.00087 26.6001 8.15224 26.2346C8.30362 25.8692 8.55996 25.5568 8.88886 25.3371C9.21776 25.1173 9.60444 25 10 25C10.5304 25 11.0391 25.2107 11.4142 25.5858C11.7893 25.9609 12 26.4696 12 27ZM23 25C22.6044 25 22.2178 25.1173 21.8889 25.3371C21.56 25.5568 21.3036 25.8692 21.1522 26.2346C21.0009 26.6001 20.9613 27.0022 21.0384 27.3902C21.1156 27.7781 21.3061 28.1345 21.5858 28.4142C21.8655 28.6939 22.2219 28.8844 22.6098 28.9616C22.9978 29.0387 23.3999 28.9991 23.7654 28.8478C24.1308 28.6964 24.4432 28.44 24.6629 28.1111C24.8827 27.7822 25 27.3956 25 27C25 26.4696 24.7893 25.9609 24.4142 25.5858C24.0391 25.2107 23.5304 25 23 25ZM28.5125 8.4C28.4187 8.27651 28.2978 8.17623 28.1591 8.10687C28.0204 8.03752 27.8676 8.00096 27.7125 8H6.0375L5.025 4.45C4.90359 4.03293 4.6505 3.66634 4.30354 3.405C3.95658 3.14365 3.53437 3.00157 3.1 3H1C0.734784 3 0.48043 3.10536 0.292893 3.29289C0.105357 3.48043 0 3.73478 0 4C0 4.26522 0.105357 4.51957 0.292893 4.70711C0.48043 4.89464 0.734784 5 1 5H3.1L4.325 9.2625V9.2875L7.625 20.825C7.80621 21.4511 8.18561 22.0016 8.70625 22.3938C9.22689 22.7859 9.86068 22.9986 10.5125 23H22.4875C23.1393 22.9986 23.7731 22.7859 24.2938 22.3938C24.8144 22.0016 25.1938 21.4511 25.375 20.825L28.675 9.275C28.7173 9.12651 28.7246 8.97023 28.6965 8.81843C28.6683 8.66662 28.6053 8.5234 28.5125 8.4Z" fill="black"/>
</svg>
