<svg width="32" height="32" viewBox="0 0 32 32" fill="none" xmlns="http://www.w3.org/2000/svg">
<path d="M30.7126 9.71262L26.9376 13.4751C26.1876 22.2126 18.8126 29.0001 10.0001 29.0001C8.18759 29.0001 6.68759 28.7126 5.55009 28.1501C4.63759 27.6876 4.26259 27.2001 4.16259 27.0501C4.07985 26.9244 4.02654 26.7817 4.00662 26.6326C3.9867 26.4835 4.00069 26.3318 4.04755 26.1888C4.09441 26.0458 4.17292 25.9152 4.27725 25.8068C4.38157 25.6984 4.50902 25.6149 4.65009 25.5626C4.67509 25.5501 7.62509 24.4251 9.53759 22.2626C8.35152 21.4181 7.30903 20.3883 6.45009 19.2126C4.73759 16.8876 2.92509 12.8501 4.01259 6.82512C4.04678 6.646 4.1287 6.47944 4.24971 6.34303C4.37072 6.20662 4.52633 6.10542 4.70009 6.05012C4.87441 5.99304 5.06106 5.985 5.23964 6.02689C5.41822 6.06878 5.58184 6.15898 5.71259 6.28762C5.75009 6.33762 9.91259 10.4376 15.0001 11.7626V11.0001C15.005 10.2073 15.166 9.42313 15.474 8.6925C15.7819 7.96188 16.2308 7.29906 16.7949 6.74191C17.359 6.18475 18.0274 5.74417 18.7618 5.44531C19.4962 5.14645 20.2822 4.99518 21.0751 5.00012C22.1157 5.01496 23.1347 5.29909 24.0329 5.82484C24.931 6.35059 25.6777 7.10002 26.2001 8.00012H30.0001C30.1975 7.9995 30.3907 8.05733 30.5553 8.16633C30.7199 8.27533 30.8486 8.43062 30.9251 8.61262C30.9971 8.79733 31.0154 8.99866 30.9778 9.19333C30.9402 9.38799 30.8482 9.56803 30.7126 9.71262Z" fill="#fff"/>
</svg>
